<?xml version="1.0" encoding="UTF-8"?><svg id="Layer_1" xmlns="http://www.w3.org/2000/svg" viewBox="0 0 909.94 667.58"><defs><style>.cls-1{fill:#fff;}</style></defs><path class="cls-1" d="M109.19,162.73c-13.07,9.22-26.81,16.18-37.15,28.86-13.31,16.33-34.21,68.87-33.26,89.5,1.21,26.37,26.63,32.33,47.32,37.4,47.81,11.72,98.79,17.25,146.17,29.46,41.55,10.7,58.35,57.21,93.99,77.79,22.85,13.2,57.86,10.43,83.6,11.27,44.01,1.44,93.27,3.16,137.1-1.24,52.13-5.23,62.99-36.53,96.75-68.62,15.52-14.76,25.6-17.38,45.96-21.98,47.14-10.65,99.31-15.64,145.38-28.97,46.15-13.35,39.92-40.08,26.32-78.15-11.49-32.16-27.1-61.85-61.21-74.05,10.29-7.2,21.16-15.35,22.96-28.94,3.04-22.89-18.1-57.8-31.96-75.5-9.46-12.07-29.53-28.01-30.45-43.94-1.34-23.14,31.52-14.95,44.17-9.51,64.58,27.79,79.42,103.35,90.82,165.57,26.01,141.99,27.12,331.8-91.08,434.58-53.91,46.88-120.21,58.26-189.64,60.34-69.02,2.06-138.81.38-207.68-.11-121.61-.86-241.86,14.64-328.84-87.8C-17.69,465.43-10.39,274.75,21.14,138.12c10-43.33,24.04-90.55,61.25-118.23,13.02-9.68,42.71-25.8,58.47-17.67,24.65,12.7-11.59,45.19-20.63,56.79-21.53,27.63-57.59,81.62-11.03,103.72ZM124.35,342.49c-76.73.57-46.56,99.09-27.79,142.46,33.43,77.25,111.63,118.43,194.05,122.6,38.27,1.93,64.01-21.5,99.93-26.96,42.22,2.42,87.69-3.08,129.51.07,41.71,3.13,56.98,31.66,110.1,25.46,91.01-10.63,160.56-51.97,191.13-140.9,17.25-50.19,35.34-130.86-45.94-121.57-26.4,3.02-79.16,12.27-100.68,26.23-31.84,20.66-59.4,52.85-89.25,76.12-30.83,24.04-50.31,19.23-87.19,20.49-35.78,1.22-71.82,1.84-107.68.11-36.25-1.75-46.17-4.5-73.68-27.6-25.46-21.38-52.58-52.34-80.58-69.41-19.55-11.92-88.79-27.27-111.92-27.1Z"/><path class="cls-1" d="M401.22,122.07c61.67-2.36,147.04-2.53,206.95,10.23,36.47,7.77,60,41.98,58.73,78.54-1.01,29.39-6.91,92.42-15.1,119.5-6.56,21.66-32.76,46.13-49.01,62.52-29.19,29.43-38.89,28.99-80.1,31.43-37.06,2.19-74.5,1.14-111.53-.11-21.48-.72-50.89,1.19-70.81-6.11-17.35-6.36-47.94-40.45-61.31-55.35-16.19-18.05-20.67-26.5-24.77-50.87-5.01-29.81-11.3-76.45-11.8-106.14-.43-25.72,17.14-52.5,38.93-65.01,24.88-14.29,89.72-17.48,119.82-18.63ZM343.45,219.42c-16.51,3-17.3,27.22-.33,29.22,7.96.94,17.93-.37,25.61-.08,65.16,2.44,130.81.95,196.2,1.34,20.96-2.35,20.55-27.35,2.59-29.52l-224.08-.96Z"/><path class="cls-1" d="M665.58,337.06c1.7-14.78,4.65-29.45,6.39-44.24,3.04-25.89,10.14-69.12,8.96-93.55-.85-17.69-11.58-39.33-23.09-52.54-1.53-1.76-9.03-6.73-7.64-8.37,27.99,6.99,56.57,11.75,84.61,18.57,34.71,8.44,74.76,16.05,96.16,47.42,8.69,12.73,29,61.46,28.27,75.7-1.01,19.56-28.53,23.26-43.66,26.91-49.52,11.93-100.34,18.78-150,30.1Z"/><path class="cls-1" d="M242.52,337.06c-1.7-14.78-4.65-29.45-6.39-44.24-3.04-25.89-10.14-69.12-8.96-93.55.85-17.69,11.58-39.33,23.09-52.54,1.53-1.76,9.03-6.73,7.64-8.37-27.99,6.99-56.57,11.75-84.61,18.57-34.71,8.44-74.76,16.05-96.16,47.42-8.69,12.73-29,61.46-28.27,75.7,1.01,19.56,28.53,23.26,43.66,26.91,49.52,11.93,100.34,18.78,150,30.1Z"/><path class="cls-1" d="M565.3,239.35l-195.28.34-24.08-1.28c-2.02-.49-2.93-6.63-.33-7.85l215.55-1.24,6.83,4.74-2.69,5.3Z"/></svg>